<svg width="651" height="618" viewBox="0 0 651 618" fill="none" xmlns="http://www.w3.org/2000/svg">
<path d="M452.559 386.847V338.419L544.93 193.135H588.874V257.706H563.763L513.99 336.626V338.419H650.306V386.847H452.559ZM564.212 422.72V372.05L565.557 350.975V193.135H623.85V422.72H564.212Z" fill="#F2F2F2"/>
<path d="M324.206 428.997C303.355 428.923 285.344 424.102 270.173 414.536C255.002 404.97 243.306 391.182 235.085 373.171C226.865 355.16 222.792 333.561 222.866 308.376C222.941 283.116 227.051 261.667 235.197 244.029C243.418 226.392 255.077 212.977 270.173 203.785C285.344 194.593 303.355 189.996 324.206 189.996C345.057 189.996 363.068 194.63 378.239 203.897C393.41 213.089 405.106 226.504 413.327 244.142C421.548 261.779 425.621 283.19 425.546 308.376C425.546 333.711 421.436 355.384 413.215 373.395C404.994 391.406 393.298 405.194 378.127 414.76C363.031 424.252 345.057 428.997 324.206 428.997ZM324.206 378.327C334.968 378.327 343.787 372.722 350.662 361.512C357.613 350.227 361.05 332.515 360.976 308.376C360.976 292.607 359.406 279.715 356.267 269.701C353.128 259.686 348.794 252.288 343.264 247.505C337.733 242.647 331.381 240.218 324.206 240.218C313.444 240.218 304.663 245.674 297.862 256.585C291.061 267.496 287.586 284.76 287.437 308.376C287.362 324.444 288.894 337.672 292.033 348.06C295.172 358.373 299.506 365.996 305.037 370.929C310.642 375.861 317.032 378.327 324.206 378.327Z" fill="#F2F2F2"/>
<path d="M0.3125 386.847V338.419L92.6843 193.135H136.628V257.706H111.517L61.7443 336.626V338.419H198.06V386.847H0.3125ZM111.966 422.72V372.05L113.311 350.975V193.135H171.604V422.72H111.966Z" fill="#F2F2F2"/>
<path opacity="0.4" d="M358.699 275.304C356.589 254.619 343.018 239 323.675 239C311.538 239 304.14 243.644 294.559 255.824C284.978 268.004 93.6992 567 93.6992 567" stroke="url(#paint0_linear_221_6537)" stroke-width="5"/>
<path opacity="0.4" d="M420.699 269.856C413.521 222.404 377.746 190 325.282 190C292.364 190 269.027 199.718 246.311 227.897C223.595 256.076 48.6992 539 48.6992 539" stroke="url(#paint1_linear_221_6537)" stroke-width="5"/>
<path opacity="0.4" d="M287.699 343.696C289.809 364.381 303.38 380 322.723 380C334.86 380 342.258 375.356 351.839 363.176C361.42 350.996 552.699 52 552.699 52" stroke="url(#paint2_linear_221_6537)" stroke-width="5"/>
<path opacity="0.4" d="M226.699 348.373C233.877 395.689 269.652 428 322.116 428C355.035 428 378.371 418.31 401.087 390.212C423.804 362.113 598.699 80 598.699 80" stroke="url(#paint3_linear_221_6537)" stroke-width="5"/>
<path d="M50.9385 588.966L107.868 500.487C107.666 500.357 107.23 500.553 107.037 500.668L106.532 500.342L104.472 501.877L90.2098 486.266L88.9085 488.288C88.5531 488.655 87.9471 489.671 88.3656 490.798C88.7842 491.926 93.8454 503.022 96.3237 508.43C94.3183 509.88 89.5232 513.777 86.3861 517.764C83.2489 521.75 78.5126 529.26 76.5365 532.516L68.9526 527.636L46.7125 498.313C46.4231 499.319 45.7648 501.564 45.4465 502.503C45.0487 503.677 44.6508 504.851 45.2642 506.675C45.7549 508.135 56.9912 539.004 62.548 554.257L53.9272 567.655C51.65 571.194 49.6609 577.063 48.9906 581.994C48.4544 585.938 50.0658 588.286 50.9385 588.966Z" fill="#858585"/>
<path d="M50.9385 588.966L107.868 500.487C107.666 500.357 107.23 500.553 107.037 500.668L106.532 500.342L104.472 501.877L90.2098 486.266L88.9085 488.288C88.5531 488.655 87.9471 489.671 88.3656 490.798C88.7842 491.926 93.8454 503.022 96.3237 508.43C94.3183 509.88 89.5232 513.777 86.3861 517.764C83.2489 521.75 78.5126 529.26 76.5365 532.516L68.9526 527.636L46.7125 498.313C46.4231 499.319 45.7648 501.564 45.4465 502.503C45.0487 503.677 44.6508 504.851 45.2642 506.675C45.7549 508.135 56.9912 539.004 62.548 554.257L53.9272 567.655C51.65 571.194 49.6609 577.063 48.9906 581.994C48.4544 585.938 50.0658 588.286 50.9385 588.966Z" fill="url(#paint4_linear_221_6537)"/>
<path d="M50.9385 588.966L107.868 500.487C108.071 500.617 108.073 501.095 108.049 501.318L108.554 501.644L108.011 504.154L128.129 510.664L126.828 512.687C126.641 513.162 125.968 514.135 124.768 514.221C123.569 514.307 111.373 514.3 105.424 514.285C104.936 516.711 103.376 522.69 101.048 527.198C98.7201 531.705 93.8489 539.128 91.7043 542.275L99.2883 547.155L135.192 555.243C134.397 555.923 132.626 557.453 131.903 558.132C131 558.98 130.096 559.829 128.182 560.027C126.65 560.185 93.8996 562.752 77.7159 564.016L69.0951 577.414C66.8179 580.953 62.3008 585.196 58.0913 587.849C54.7238 589.972 51.9196 589.478 50.9385 588.966Z" fill="#858585"/>
<path d="M50.9385 588.966L107.868 500.487C108.071 500.617 108.073 501.095 108.049 501.318L108.554 501.644L108.011 504.154L128.129 510.664L126.828 512.687C126.641 513.162 125.968 514.135 124.768 514.221C123.569 514.307 111.373 514.3 105.424 514.285C104.936 516.711 103.376 522.69 101.048 527.198C98.7201 531.705 93.8489 539.128 91.7043 542.275L99.2883 547.155L135.192 555.243C134.397 555.923 132.626 557.453 131.903 558.132C131 558.98 130.096 559.829 128.182 560.027C126.65 560.185 93.8996 562.752 77.7159 564.016L69.0951 577.414C66.8179 580.953 62.3008 585.196 58.0913 587.849C54.7238 589.972 51.9196 589.478 50.9385 588.966Z" fill="url(#paint5_linear_221_6537)"/>
<path d="M54.3871 539.714L56.6643 536.175L54.4284 526.872L48.5727 535.973C48.0522 536.782 47.8738 537.429 47.8496 537.652L53.1583 541.068C53.4053 540.869 53.9967 540.32 54.3871 539.714Z" fill="#858585"/>
<path d="M54.3871 539.714L56.6643 536.175L54.4284 526.872L48.5727 535.973C48.0522 536.782 47.8738 537.429 47.8496 537.652L53.1583 541.068C53.4053 540.869 53.9967 540.32 54.3871 539.714Z" fill="url(#paint6_linear_221_6537)"/>
<path d="M93.5726 564.925L95.8498 561.386L105.243 559.566L99.387 568.667C98.8665 569.475 98.3509 569.906 98.1582 570.021L92.8495 566.605C92.9279 566.298 93.1822 565.532 93.5726 564.925Z" fill="#858585"/>
<path d="M93.5726 564.925L95.8498 561.386L105.243 559.566L99.387 568.667C98.8665 569.475 98.3509 569.906 98.1582 570.021L92.8495 566.605C92.9279 566.298 93.1822 565.532 93.5726 564.925Z" fill="url(#paint7_linear_221_6537)"/>
<path d="M598.169 28.4649L541.239 116.944C541.441 117.074 541.877 116.878 542.07 116.764L542.576 117.089L544.635 115.555L558.898 131.166L560.199 129.143C560.554 128.776 561.16 127.76 560.742 126.633C560.323 125.506 555.262 114.409 552.784 109.001C554.789 107.551 559.584 103.654 562.721 99.6676C565.858 95.6809 570.595 88.1715 572.571 84.9152L580.155 89.7949L602.395 119.118C602.684 118.113 603.343 115.867 603.661 114.928C604.059 113.754 604.457 112.58 603.843 110.756C603.353 109.296 592.116 78.4269 586.559 63.1747L595.18 49.7764C597.457 46.2373 599.447 40.368 600.117 35.4375C600.653 31.493 599.042 29.1456 598.169 28.4649Z" fill="#858585"/>
<path d="M598.169 28.4649L541.239 116.944C541.441 117.074 541.877 116.878 542.07 116.764L542.576 117.089L544.635 115.555L558.898 131.166L560.199 129.143C560.554 128.776 561.16 127.76 560.742 126.633C560.323 125.506 555.262 114.409 552.784 109.001C554.789 107.551 559.584 103.654 562.721 99.6676C565.858 95.6809 570.595 88.1715 572.571 84.9152L580.155 89.7949L602.395 119.118C602.684 118.113 603.343 115.867 603.661 114.928C604.059 113.754 604.457 112.58 603.843 110.756C603.353 109.296 592.116 78.4269 586.559 63.1747L595.18 49.7764C597.457 46.2373 599.447 40.368 600.117 35.4375C600.653 31.493 599.042 29.1456 598.169 28.4649Z" fill="url(#paint8_linear_221_6537)"/>
<path d="M598.169 28.4649L541.239 116.944C541.037 116.814 541.035 116.336 541.059 116.113L540.553 115.788L541.096 113.277L520.978 106.767L522.279 104.745C522.466 104.269 523.14 103.296 524.339 103.21C525.538 103.124 537.735 103.131 543.683 103.146C544.172 100.72 545.731 94.7408 548.059 90.2335C550.387 85.7263 555.258 78.3037 557.403 75.1558L549.819 70.2761L513.916 62.1881C514.711 61.5081 516.482 59.9784 517.204 59.2996C518.108 58.451 519.011 57.6025 520.926 57.4046C522.457 57.2463 555.208 54.6791 571.392 53.4153L580.012 40.017C582.29 36.4779 586.807 32.2352 591.016 29.5818C594.384 27.4592 597.188 27.9528 598.169 28.4649Z" fill="#858585"/>
<path d="M598.169 28.4649L541.239 116.944C541.037 116.814 541.035 116.336 541.059 116.113L540.553 115.788L541.096 113.277L520.978 106.767L522.279 104.745C522.466 104.269 523.14 103.296 524.339 103.21C525.538 103.124 537.735 103.131 543.683 103.146C544.172 100.72 545.731 94.7408 548.059 90.2335C550.387 85.7263 555.258 78.3037 557.403 75.1558L549.819 70.2761L513.916 62.1881C514.711 61.5081 516.482 59.9784 517.204 59.2996C518.108 58.451 519.011 57.6025 520.926 57.4046C522.457 57.2463 555.208 54.6791 571.392 53.4153L580.012 40.017C582.29 36.4779 586.807 32.2352 591.016 29.5818C594.384 27.4592 597.188 27.9528 598.169 28.4649Z" fill="url(#paint9_linear_221_6537)"/>
<path d="M594.72 77.7175L592.443 81.2567L594.679 90.5593L600.534 81.4586C601.055 80.6497 601.233 80.002 601.257 79.7792L595.949 76.3634C595.702 76.562 595.11 77.1108 594.72 77.7175Z" fill="#858585"/>
<path d="M594.72 77.7175L592.443 81.2567L594.679 90.5593L600.534 81.4586C601.055 80.6497 601.233 80.002 601.257 79.7792L595.949 76.3634C595.702 76.562 595.11 77.1108 594.72 77.7175Z" fill="url(#paint10_linear_221_6537)"/>
<path d="M555.535 52.5058L553.258 56.045L543.865 57.8654L549.72 48.7647C550.241 47.9557 550.757 47.5249 550.949 47.4106L556.258 50.8264C556.18 51.1334 555.925 51.8991 555.535 52.5058Z" fill="#858585"/>
<path d="M555.535 52.5058L553.258 56.045L543.865 57.8654L549.72 48.7647C550.241 47.9557 550.757 47.5249 550.949 47.4106L556.258 50.8264C556.18 51.1334 555.925 51.8991 555.535 52.5058Z" fill="url(#paint11_linear_221_6537)"/>
<defs>
<linearGradient id="paint0_linear_221_6537" x1="343.93" y1="268.972" x2="296.336" y2="280.01" gradientUnits="userSpaceOnUse">
<stop stop-color="#858585" stop-opacity="0"/>
<stop offset="1" stop-color="#858585" stop-opacity="0.7"/>
</linearGradient>
<linearGradient id="paint1_linear_221_6537" x1="410.565" y1="266.053" x2="323.386" y2="298.646" gradientUnits="userSpaceOnUse">
<stop stop-color="#858585" stop-opacity="0"/>
<stop offset="1" stop-color="#858585" stop-opacity="0.7"/>
</linearGradient>
<linearGradient id="paint2_linear_221_6537" x1="302.468" y1="350.028" x2="350.062" y2="338.99" gradientUnits="userSpaceOnUse">
<stop stop-color="#858585" stop-opacity="0"/>
<stop offset="1" stop-color="#858585" stop-opacity="0.7"/>
</linearGradient>
<linearGradient id="paint3_linear_221_6537" x1="236.833" y1="352.165" x2="323.951" y2="319.501" gradientUnits="userSpaceOnUse">
<stop stop-color="#858585" stop-opacity="0"/>
<stop offset="1" stop-color="#858585" stop-opacity="0.7"/>
</linearGradient>
<linearGradient id="paint4_linear_221_6537" x1="22.0969" y1="673.139" x2="-20.3727" y2="653.687" gradientUnits="userSpaceOnUse">
<stop stop-color="#63CC76"/>
<stop offset="1" stop-color="#EBEE2B"/>
</linearGradient>
<linearGradient id="paint5_linear_221_6537" x1="-13.7133" y1="650.098" x2="21.5907" y2="680.687" gradientUnits="userSpaceOnUse">
<stop stop-color="#63CC76"/>
<stop offset="1" stop-color="#EBEE2B"/>
</linearGradient>
<linearGradient id="paint6_linear_221_6537" x1="50.2801" y1="551.268" x2="44.6705" y2="548.812" gradientUnits="userSpaceOnUse">
<stop stop-color="#63CC76"/>
<stop offset="1" stop-color="#EBEE2B"/>
</linearGradient>
<linearGradient id="paint7_linear_221_6537" x1="84.7592" y1="573.452" x2="89.3191" y2="577.539" gradientUnits="userSpaceOnUse">
<stop stop-color="#63CC76"/>
<stop offset="1" stop-color="#EBEE2B"/>
</linearGradient>
<linearGradient id="paint8_linear_221_6537" x1="627.01" y1="-55.7082" x2="669.48" y2="-36.2558" gradientUnits="userSpaceOnUse">
<stop stop-color="#63CC76"/>
<stop offset="1" stop-color="#EBEE2B"/>
</linearGradient>
<linearGradient id="paint9_linear_221_6537" x1="662.821" y1="-32.667" x2="627.517" y2="-63.2562" gradientUnits="userSpaceOnUse">
<stop stop-color="#63CC76"/>
<stop offset="1" stop-color="#EBEE2B"/>
</linearGradient>
<linearGradient id="paint10_linear_221_6537" x1="598.827" y1="66.1631" x2="604.436" y2="68.6191" gradientUnits="userSpaceOnUse">
<stop stop-color="#63CC76"/>
<stop offset="1" stop-color="#EBEE2B"/>
</linearGradient>
<linearGradient id="paint11_linear_221_6537" x1="564.348" y1="43.9797" x2="559.788" y2="39.8923" gradientUnits="userSpaceOnUse">
<stop stop-color="#63CC76"/>
<stop offset="1" stop-color="#EBEE2B"/>
</linearGradient>
</defs>
</svg>
