<svg width="190" height="58" viewBox="0 0 190 58" fill="none" xmlns="http://www.w3.org/2000/svg">
<path fill-rule="evenodd" clip-rule="evenodd" d="M25.1041 26.9515C25.6039 27.1408 25.7863 27.754 25.4712 28.1858L22.4114 32.3782C22.2519 32.5968 21.9937 32.7212 21.7234 32.7098L17.3761 32.5267C17.2727 32.5224 17.1715 32.5578 17.0934 32.6258L16.6627 33.0006C16.4318 33.2015 16.4988 33.576 16.785 33.6844L19.4526 34.695C19.9524 34.8843 20.1348 35.4975 19.8197 35.9292L15.2003 42.2587C15.0479 42.4675 14.8049 42.591 14.5464 42.591L0.81095 42.5906C0.148724 42.5906 -0.233321 41.8388 0.157077 41.3038L17.2705 17.8555C22.7876 10.2962 31.4067 5.66019 40.6967 5.18295C41.3581 5.14897 41.7407 5.8939 41.3503 6.42882L30.008 21.9696C29.8485 22.1881 29.5904 22.3125 29.3201 22.3011L19.5623 21.8902C18.7348 21.8553 17.9254 22.1389 17.3006 22.6826L16.7598 23.1531C16.5289 23.354 16.5959 23.7285 16.8821 23.837L25.1041 26.9515Z" fill="url(#paint0_linear_143_4903)"/>
<path fill-rule="evenodd" clip-rule="evenodd" d="M33.0185 25.0237C32.9258 24.7701 32.9658 24.4869 33.125 24.2687L39.6974 15.2634C39.8498 15.0546 40.0928 14.9311 40.3513 14.9311L54.0867 14.9315C54.749 14.9315 55.131 15.6833 54.7406 16.2182L37.6272 39.6665C32.1101 47.2258 23.491 51.8619 14.201 52.3391C13.5396 52.3731 13.157 51.6281 13.5474 51.0932L22.9373 38.2275C23.2527 37.7954 23.8932 37.7826 24.2255 38.2019L25.965 40.396C26.1552 40.6358 26.5324 40.586 26.6538 40.3051L26.8802 39.7809C26.9213 39.6859 26.9244 39.5787 26.8888 39.4815L25.4135 35.4439C25.3209 35.1902 25.3608 34.907 25.52 34.6888L28.5914 30.4805C28.9068 30.0483 29.5473 30.0355 29.8797 30.4548L35.319 37.3158C35.5091 37.5556 35.8863 37.5058 36.0077 37.2248L36.292 36.5668C36.6205 35.8065 36.6451 34.9492 36.3609 34.1713L33.0185 25.0237Z" fill="url(#paint1_linear_143_4903)"/>
<path fill-rule="evenodd" clip-rule="evenodd" d="M72.9073 15.7646H77.3287C77.2451 14.7657 77.0073 13.8792 76.6154 13.1051C76.2234 12.3311 75.706 11.6799 75.0632 11.1517C74.4203 10.6182 73.673 10.2129 72.8211 9.93572C71.9692 9.65852 71.0363 9.51993 70.0224 9.51993C68.58 9.51993 67.2734 9.83635 66.1028 10.4692C64.9321 11.0968 64.0018 12.0251 63.312 13.2542C62.6221 14.478 62.2772 15.9843 62.2772 17.773C62.2772 19.5512 62.6142 21.0548 63.2884 22.2839C63.9678 23.513 64.8903 24.4439 66.0557 25.0768C67.2264 25.7096 68.5486 26.026 70.0224 26.026C71.1984 26.026 72.2305 25.8456 73.119 25.4847C74.0075 25.1238 74.7522 24.6479 75.3532 24.0569C75.9595 23.4607 76.4272 22.8121 76.7565 22.1113C77.0857 21.4053 77.2765 20.7123 77.3287 20.0324L72.9073 20.001C72.8551 20.3462 72.7532 20.6574 72.6016 20.9346C72.4553 21.2065 72.2645 21.4393 72.0293 21.6328C71.7941 21.8263 71.5172 21.9753 71.1984 22.0799C70.8796 22.1793 70.5189 22.229 70.1165 22.229C69.411 22.229 68.8073 22.0642 68.3056 21.7348C67.8039 21.4 67.4198 20.9032 67.1532 20.2442C66.8919 19.58 66.7613 18.7562 66.7613 17.773C66.7613 16.842 66.8893 16.0444 67.1454 15.3802C67.4067 14.716 67.7882 14.2061 68.2899 13.8504C68.7969 13.4948 69.4162 13.317 70.1479 13.317C70.566 13.317 70.9397 13.3771 71.2689 13.4974C71.5982 13.6125 71.8778 13.7798 72.1077 13.9995C72.3429 14.2139 72.5258 14.4702 72.6565 14.7683C72.7924 15.0664 72.876 15.3985 72.9073 15.7646ZM90.8771 9.73959H79.3062V25.8064H90.8458V22.2918H83.6649V19.5303H90.2813V16.0157H83.6649V13.2542H90.8771V9.73959ZM103.293 25.8064H106.93V9.73959H102.571V18.1495H102.446L96.739 9.73959H93.0388V25.8064H97.3975V17.365H97.4916L103.293 25.8064ZM108.553 9.73959V13.2542H113.382V25.8064H117.678V13.2542H122.507V9.73959H108.553ZM131.077 9.73959H124.147V25.8064H128.506V20.5031H130.015L132.833 25.8064H137.568L134.308 19.816C135.141 19.416 135.794 18.8475 136.267 18.1103C136.779 17.3206 137.035 16.3504 137.035 15.1998C137.035 14.0596 136.787 13.0816 136.291 12.2657C135.794 11.4498 135.099 10.8248 134.205 10.3907C133.312 9.95664 132.269 9.73959 131.077 9.73959ZM128.506 17.114H130.043C130.555 17.114 130.991 17.0512 131.352 16.9257C131.718 16.795 131.997 16.5884 132.191 16.3059C132.389 16.0235 132.488 15.6548 132.488 15.1998C132.488 14.7395 132.389 14.3656 132.191 14.0779C131.997 13.785 131.718 13.5706 131.352 13.4346C130.991 13.2934 130.555 13.2228 130.043 13.2228H128.506V17.114ZM138.36 25.8064H143.064L143.991 22.7311H149.286L150.213 25.8064H154.917L149.617 9.73959H143.66L138.36 25.8064ZM148.301 19.4675L146.701 14.1642H146.576L144.976 19.4675H148.301ZM160.822 9.73959H156.463V25.8064H167.313V22.2918H160.822V9.73959ZM61.8068 47.2604H66.5104L67.4381 44.1851H72.7322L73.6599 47.2604H78.3635L73.0641 31.1936H67.1062L61.8068 47.2604ZM71.7477 40.9215L70.1479 35.6183H70.0224L68.4226 40.9215H71.7477ZM87.3514 34.9906C87.7015 35.2835 87.8975 35.6915 87.9393 36.2145H92.1099C92.1046 35.1632 91.8433 34.2454 91.3259 33.4608C90.8137 32.6711 90.0847 32.0592 89.1387 31.6251C88.1928 31.191 87.0718 30.974 85.7757 30.974C84.5057 30.974 83.3794 31.1884 82.3969 31.6172C81.4196 32.0461 80.6539 32.645 80.0999 33.4138C79.5512 34.1774 79.2794 35.0691 79.2847 36.089C79.2794 37.3442 79.6845 38.3353 80.4998 39.0623C81.3203 39.784 82.4413 40.2992 83.8628 40.6077L85.4621 40.9529C86.0579 41.0837 86.5308 41.2249 86.881 41.3766C87.2312 41.523 87.482 41.6904 87.6336 41.8786C87.7904 42.0617 87.8714 42.2761 87.8766 42.5219C87.8714 42.7834 87.7878 43.0162 87.6257 43.2202C87.4637 43.4241 87.2259 43.5836 86.9124 43.6987C86.5988 43.8138 86.2094 43.8713 85.7443 43.8713C85.1903 43.8713 84.7121 43.785 84.3097 43.6124C83.9125 43.4398 83.6041 43.1862 83.3846 42.8514C83.1651 42.5167 83.0423 42.1035 83.0162 41.6119H78.877C78.8822 42.956 79.1697 44.0596 79.7393 44.9225C80.3142 45.7803 81.1191 46.4157 82.1539 46.8289C83.1939 47.2421 84.4116 47.4487 85.807 47.4487C87.1658 47.4487 88.3287 47.2578 89.2955 46.876C90.2676 46.4942 91.015 45.9372 91.5376 45.205C92.0602 44.4728 92.3241 43.5784 92.3294 42.5219C92.3241 41.91 92.2248 41.3452 92.0315 40.8274C91.8433 40.3096 91.548 39.8441 91.1456 39.431C90.7432 39.0126 90.2258 38.6491 89.5934 38.3405C88.961 38.0319 88.2006 37.7835 87.3122 37.5952L85.9952 37.3128C85.6136 37.2343 85.2844 37.1454 85.0074 37.0461C84.7304 36.9467 84.5031 36.8369 84.3254 36.7166C84.1477 36.591 84.017 36.4524 83.9334 36.3008C83.855 36.1439 83.821 35.9687 83.8315 35.7752C83.8367 35.5398 83.9073 35.3306 84.0432 35.1475C84.179 34.9645 84.3881 34.8207 84.6703 34.7161C84.9577 34.6062 85.3262 34.5513 85.7757 34.5513C86.4812 34.5513 87.0064 34.6978 87.3514 34.9906ZM98.7876 47.2604V31.1936H94.4289V47.2604H98.7876ZM100.32 47.2604H105.024L105.952 44.1851H111.246L112.173 47.2604H116.877L111.578 31.1936H105.62L100.32 47.2604ZM110.261 40.9215L108.661 35.6183H108.536L106.936 40.9215H110.261ZM123.284 41.0157V45.0638H126.796V41.0157H130.841V37.5011H126.796V33.453H123.284V37.5011H119.239V41.0157H123.284ZM132.311 47.2604H133.847L136.377 42.42H143.109L144.023 47.2604H145.559L142.384 31.1936H140.816L132.311 47.2604ZM142.86 41.102L141.349 33.1H141.248L137.066 41.102H142.86ZM150.976 31.1936L148.311 47.2604H157.781L158 45.9424H149.996L151 39.8781H158.353L158.573 38.5602H151.219L152.223 32.5116H160.07L160.289 31.1936H150.976ZM164.084 31.1936L161.418 47.2604H162.884L163.961 40.7646H167.698C167.914 40.7646 168.125 40.7572 168.331 40.7424L170.763 47.2604H172.448L169.868 40.4629C170.137 40.3794 170.394 40.2787 170.637 40.1606C171.468 39.7526 172.137 39.1904 172.644 38.4739C173.156 37.7574 173.491 36.9336 173.648 36.0027C173.799 35.0613 173.739 34.2297 173.467 33.5079C173.201 32.7809 172.717 32.2135 172.017 31.8055C171.322 31.3976 170.405 31.1936 169.265 31.1936H164.084ZM164.184 39.4231H167.886C168.727 39.4231 169.448 39.2845 170.049 39.0073C170.65 38.7301 171.131 38.3353 171.492 37.8227C171.852 37.3102 172.09 36.7035 172.205 36.0027C172.32 35.2966 172.281 34.6821 172.088 34.1591C171.899 33.6361 171.549 33.2307 171.037 32.9431C170.53 32.6554 169.853 32.5116 169.007 32.5116H165.33L164.184 39.4231ZM188.225 43.6359C189.014 42.4121 189.547 40.9712 189.824 39.3133C190.106 37.6188 190.049 36.1491 189.652 34.9043C189.255 33.6544 188.586 32.6868 187.645 32.0017C186.704 31.3165 185.554 30.974 184.195 30.974C182.852 30.974 181.609 31.3087 180.464 31.9781C179.319 32.6476 178.353 33.5942 177.563 34.8181C176.774 36.0419 176.241 37.4828 175.964 39.1407C175.687 40.83 175.745 42.2997 176.137 43.5497C176.529 44.7944 177.195 45.762 178.136 46.4523C179.082 47.1375 180.242 47.48 181.616 47.48C182.954 47.48 184.193 47.1453 185.332 46.4759C186.472 45.8064 187.436 44.8598 188.225 43.6359ZM188.327 35.477C188.63 36.4864 188.661 37.7077 188.421 39.1407C188.186 40.5947 187.736 41.842 187.073 42.8828C186.414 43.9184 185.614 44.7133 184.674 45.2677C183.733 45.8221 182.724 46.0993 181.648 46.0993C180.608 46.0993 179.722 45.8326 178.99 45.2991C178.264 44.7604 177.752 43.9864 177.454 42.977C177.156 41.9623 177.124 40.7411 177.36 39.3133C177.605 37.8541 178.06 36.6067 178.724 35.5712C179.387 34.5304 180.19 33.7354 181.13 33.1863C182.071 32.6319 183.077 32.3547 184.148 32.3547C185.183 32.3547 186.064 32.624 186.79 33.1627C187.517 33.6962 188.029 34.4676 188.327 35.477Z" fill="#333333"/>
<defs>
<linearGradient id="paint0_linear_143_4903" x1="13.2153" y1="-2.75598" x2="25.1147" y2="44.7016" gradientUnits="userSpaceOnUse">
<stop stop-color="#4184FF"/>
<stop offset="0.838417" stop-color="#8CDEFF"/>
</linearGradient>
<linearGradient id="paint1_linear_143_4903" x1="34.1445" y1="14.9309" x2="34.1435" y2="52.3805" gradientUnits="userSpaceOnUse">
<stop stop-color="#6FDD83"/>
<stop offset="1" stop-color="#EEDA2B"/>
</linearGradient>
</defs>
</svg>
