<svg width="229" height="196" viewBox="0 0 229 196" fill="none" xmlns="http://www.w3.org/2000/svg">
<path fill-rule="evenodd" clip-rule="evenodd" d="M104.809 90.0995C106.875 90.8831 107.629 93.421 106.326 95.2078L93.6802 112.559C93.021 113.464 91.9542 113.979 90.8369 113.932L72.8697 113.174C72.4421 113.156 72.024 113.303 71.7012 113.584L69.921 115.135C68.9667 115.967 69.2436 117.517 70.4264 117.965L81.4517 122.148C83.5175 122.931 84.2713 125.469 82.969 127.256L63.8768 153.452C63.2469 154.316 62.2427 154.827 61.1742 154.827L4.40599 154.826C1.66903 154.826 0.0900387 151.714 1.70355 149.5L72.433 52.4535C95.235 21.1672 130.858 1.97986 169.253 0.00464351C171.987 -0.135972 173.568 2.94713 171.954 5.161L125.077 69.4804C124.418 70.3849 123.351 70.8998 122.234 70.8527L81.9051 69.1519C78.485 69.0077 75.1397 70.1813 72.5573 72.4314L70.3223 74.3787C69.3681 75.2102 69.645 76.7604 70.8278 77.2091L104.809 90.0995Z" fill="white"/>
<path fill-rule="evenodd" clip-rule="evenodd" d="M137.519 82.1209C137.136 81.071 137.301 79.8989 137.959 78.9959L165.123 41.7251C165.753 40.8608 166.757 40.3498 167.826 40.3499L224.594 40.3513C227.331 40.3514 228.91 43.4631 227.296 45.6769L156.567 142.724C133.765 174.01 98.1421 193.197 59.7467 195.173C57.0133 195.313 55.4321 192.23 57.0457 190.016L95.8539 136.768C97.1575 134.98 99.8044 134.927 101.178 136.662L108.367 145.743C109.153 146.736 110.712 146.529 111.214 145.367L112.15 143.197C112.32 142.804 112.332 142.361 112.185 141.958L106.088 125.247C105.705 124.197 105.87 123.025 106.528 122.122L119.222 104.705C120.526 102.916 123.173 102.864 124.547 104.599L147.027 132.995C147.813 133.987 149.372 133.781 149.874 132.618L151.049 129.895C152.406 126.748 152.508 123.2 151.333 119.98L137.519 82.1209Z" fill="white"/>
</svg>
