<svg width="230" height="70" viewBox="0 0 230 70" fill="none" xmlns="http://www.w3.org/2000/svg">
<path fill-rule="evenodd" clip-rule="evenodd" d="M30.3892 32.9287C30.9942 33.1579 31.215 33.9002 30.8336 34.4228L27.1296 39.4979C26.9365 39.7625 26.624 39.9131 26.2968 39.8993L21.0343 39.6777C20.9091 39.6724 20.7866 39.7153 20.692 39.7976L20.1706 40.2513C19.8911 40.4944 19.9722 40.9479 20.3187 41.0791L23.5479 42.3024C24.153 42.5316 24.3738 43.2738 23.9923 43.7965L18.4003 51.4584C18.2158 51.7112 17.9217 51.8607 17.6087 51.8607L0.981676 51.8602C0.180034 51.8602 -0.282442 50.9501 0.190146 50.3026L20.9064 21.9178C27.5849 12.767 38.0187 7.15501 49.2645 6.57729C50.0651 6.53616 50.5282 7.43792 50.0556 8.08545L36.3255 26.8979C36.1325 27.1625 35.82 27.3131 35.4927 27.2993L23.6807 26.8019C22.679 26.7597 21.6992 27.1029 20.9428 27.761L20.2882 28.3306C20.0087 28.5738 20.0898 29.0272 20.4362 29.1585L30.3892 32.9287Z" fill="url(#paint0_linear_871_586)"/>
<path fill-rule="evenodd" clip-rule="evenodd" d="M39.9698 30.5951C39.8576 30.288 39.906 29.9452 40.0987 29.6811L48.0548 18.7799C48.2393 18.5271 48.5334 18.3777 48.8464 18.3777L65.4734 18.3781C66.2751 18.3781 66.7376 19.2883 66.265 19.9358L45.5487 48.3206C38.8702 57.4713 28.4364 63.0834 17.1906 63.6611C16.3901 63.7022 15.9269 62.8004 16.3995 62.1529L27.7662 46.5787C28.148 46.0555 28.9233 46.04 29.3257 46.5476L31.4314 49.2036C31.6615 49.4939 32.1182 49.4336 32.2651 49.0935L32.5392 48.4591C32.5889 48.344 32.5927 48.2143 32.5497 48.0966L30.7638 43.2089C30.6516 42.9018 30.6999 42.559 30.8927 42.2949L34.6107 37.2006C34.9925 36.6775 35.7678 36.662 36.1701 37.1695L42.7545 45.4749C42.9847 45.7652 43.4414 45.7049 43.5883 45.3649L43.9324 44.5683C44.3301 43.6479 44.3599 42.6101 44.0158 41.6684L39.9698 30.5951Z" fill="url(#paint1_linear_871_586)"/>
<path fill-rule="evenodd" clip-rule="evenodd" d="M88.2563 19.3868H93.6086C93.5073 18.1775 93.2195 17.1044 92.745 16.1674C92.2705 15.2304 91.6442 14.4422 90.866 13.8027C90.0879 13.1569 89.1832 12.6663 88.152 12.3307C87.1207 11.9952 85.9915 11.8274 84.7641 11.8274C83.018 11.8274 81.4364 12.2104 80.0192 12.9765C78.6021 13.7362 77.476 14.86 76.6409 16.3478C75.8058 17.8293 75.3882 19.6527 75.3882 21.8179C75.3882 23.9705 75.7963 25.7907 76.6124 27.2785C77.4349 28.7663 78.5515 29.8933 79.9623 30.6594C81.3794 31.4254 82.98 31.8085 84.7641 31.8085C86.1876 31.8085 87.4371 31.59 88.5126 31.1532C89.5881 30.7163 90.4896 30.1402 91.2171 29.4248C91.951 28.703 92.5172 27.918 92.9158 27.0696C93.3144 26.2149 93.5453 25.376 93.6086 24.553L88.2563 24.515C88.1931 24.9328 88.0697 25.3095 87.8862 25.6451C87.7091 25.9743 87.4782 26.2561 87.1935 26.4903C86.9088 26.7246 86.5735 26.905 86.1876 27.0316C85.8017 27.1519 85.3651 27.2121 84.878 27.2121C84.0239 27.2121 83.2932 27.0126 82.6859 26.6138C82.0785 26.2086 81.6135 25.6071 81.2909 24.8094C80.9745 24.0053 80.8164 23.0082 80.8164 21.8179C80.8164 20.691 80.9714 19.7255 81.2814 18.9214C81.5977 18.1174 82.0595 17.5001 82.6669 17.0696C83.2805 16.6391 84.0302 16.4238 84.9159 16.4238C85.4221 16.4238 85.8744 16.4966 86.273 16.6422C86.6716 16.7815 87.01 16.9841 87.2884 17.25C87.5731 17.5096 87.7945 17.8198 87.9527 18.1807C88.1172 18.5416 88.2184 18.9436 88.2563 19.3868ZM110.009 12.0933H96.0024V31.5425H109.971V27.288H101.279V23.9452H109.288V19.6907H101.279V16.3478H110.009V12.0933ZM125.039 31.5425H129.442V12.0933H124.166V22.2738H124.014L117.105 12.0933H112.626V31.5425H117.902V21.3241H118.016L125.039 31.5425ZM131.406 12.0933V16.3478H137.252V31.5425H142.452V16.3478H148.298V12.0933H131.406ZM158.673 12.0933H150.284V31.5425H155.56V25.1228H157.386L160.798 31.5425H166.53L162.583 24.291C163.592 23.8069 164.382 23.1186 164.955 22.2263C165.575 21.2703 165.885 20.0959 165.885 18.703C165.885 17.3228 165.584 16.1389 164.983 15.1512C164.382 14.1636 163.541 13.407 162.459 12.8815C161.377 12.356 160.115 12.0933 158.673 12.0933ZM155.56 21.0202H157.42C158.04 21.0202 158.568 20.9442 159.005 20.7923C159.448 20.634 159.786 20.3839 160.02 20.042C160.261 19.7002 160.381 19.2538 160.381 18.703C160.381 18.1459 160.261 17.6932 160.02 17.345C159.786 16.9904 159.448 16.7309 159.005 16.5662C158.568 16.3953 158.04 16.3098 157.42 16.3098H155.56V21.0202ZM167.489 31.5425H173.183L174.306 27.8198H180.714L181.837 31.5425H187.531L181.116 12.0933H173.904L167.489 31.5425ZM179.522 23.8692L177.586 17.4494H177.434L175.497 23.8692H179.522ZM194.679 12.0933H189.403V31.5425H202.537V27.288H194.679V12.0933ZM74.8188 57.5132H80.5127L81.6357 53.7905H88.0443L89.1674 57.5132H94.8612L88.4461 38.064H81.2339L74.8188 57.5132ZM86.8526 49.8399L84.9159 43.4201H84.7641L82.8275 49.8399H86.8526ZM105.741 42.6604C106.165 43.0149 106.402 43.5087 106.453 44.1419H111.502C111.495 42.8693 111.179 41.7582 110.553 40.8085C109.933 39.8525 109.05 39.1118 107.905 38.5863C106.76 38.0608 105.403 37.7981 103.834 37.7981C102.296 37.7981 100.933 38.0576 99.7437 38.5768C98.5606 39.0959 97.6338 39.8209 96.9632 40.7515C96.2989 41.6759 95.9699 42.7553 95.9763 43.9899C95.9699 45.5094 96.4602 46.7091 97.4472 47.5892C98.4404 48.4629 99.7975 49.0865 101.518 49.46L103.454 49.8779C104.175 50.0361 104.748 50.2071 105.172 50.3907C105.596 50.568 105.899 50.7706 106.083 50.9985C106.273 51.2201 106.371 51.4796 106.377 51.7772C106.371 52.0938 106.269 52.3755 106.073 52.6224C105.877 52.8693 105.589 53.0624 105.21 53.2017C104.83 53.341 104.359 53.4106 103.796 53.4106C103.125 53.4106 102.546 53.3062 102.059 53.0972C101.578 52.8883 101.205 52.5813 100.939 52.1761C100.674 51.7709 100.525 51.2707 100.493 50.6756H95.4828C95.4891 52.3027 95.8371 53.6386 96.5267 54.6832C97.2226 55.7215 98.1969 56.4907 99.4495 56.9909C100.708 57.4911 102.183 57.7411 103.872 57.7411C105.517 57.7411 106.924 57.51 108.095 57.0479C109.271 56.5857 110.176 55.9114 110.809 55.0251C111.441 54.1387 111.761 53.0561 111.767 51.7772C111.761 51.0365 111.641 50.3527 111.407 49.7259C111.179 49.0991 110.821 48.5357 110.334 48.0355C109.847 47.529 109.221 47.089 108.455 46.7155C107.69 46.3419 106.769 46.0412 105.694 45.8133L104.099 45.4714C103.638 45.3764 103.239 45.2688 102.904 45.1485C102.568 45.0282 102.293 44.8953 102.078 44.7496C101.863 44.5977 101.705 44.4299 101.604 44.2463C101.509 44.0564 101.468 43.8443 101.48 43.61C101.487 43.3251 101.572 43.0719 101.737 42.8503C101.901 42.6287 102.154 42.4546 102.496 42.328C102.844 42.195 103.29 42.1286 103.834 42.1286C104.688 42.1286 105.324 42.3058 105.741 42.6604ZM119.585 57.5132V38.064H114.309V57.5132H119.585ZM121.44 57.5132H127.134L128.257 53.7905H134.666L135.789 57.5132H141.483L135.068 38.064H127.855L121.44 57.5132ZM133.474 49.8399L131.537 43.4201H131.386L129.449 49.8399H133.474ZM149.238 49.9538V54.8541H153.49V49.9538H158.386V45.6993H153.49V40.799H149.238V45.6993H144.341V49.9538H149.238ZM160.166 57.5132H162.026L165.088 51.6537H173.237L174.343 57.5132H176.203L172.36 38.064H170.462L160.166 57.5132ZM172.936 50.0583L171.107 40.3717H170.984L165.922 50.0583H172.936ZM182.761 38.064L179.534 57.5132H190.998L191.264 55.9178H181.575L182.789 48.5768H191.691L191.956 46.9814H183.055L184.27 39.6594H193.769L194.035 38.064H182.761ZM198.628 38.064L195.401 57.5132H197.176L198.48 49.6499H203.002C203.265 49.6499 203.52 49.641 203.769 49.623L206.713 57.5132H208.753L205.63 49.2847C205.956 49.1836 206.266 49.0616 206.561 48.9187C207.567 48.4249 208.377 47.7443 208.99 46.8769C209.61 46.0095 210.015 45.0124 210.205 43.8854C210.389 42.7458 210.316 41.7392 209.987 40.8655C209.664 39.9855 209.079 39.2985 208.231 38.8047C207.39 38.3109 206.28 38.064 204.9 38.064H198.628ZM198.749 48.026H203.23C204.249 48.026 205.122 47.8582 205.849 47.5227C206.577 47.1871 207.159 46.7091 207.595 46.0887C208.032 45.4682 208.32 44.7338 208.459 43.8854C208.598 43.0307 208.551 42.2868 208.317 41.6537C208.089 41.0206 207.665 40.5299 207.045 40.1817C206.431 39.8335 205.612 39.6594 204.587 39.6594H200.136L198.749 48.026ZM227.851 53.1257C228.807 51.6443 229.452 49.9 229.787 47.8931C230.129 45.8418 230.059 44.0627 229.578 42.5559C229.098 41.0428 228.288 39.8715 227.149 39.0421C226.01 38.2127 224.618 37.7981 222.974 37.7981C221.348 37.7981 219.842 38.2032 218.456 39.0136C217.071 39.824 215.901 40.97 214.945 42.4514C213.99 43.9329 213.345 45.6772 213.009 47.6841C212.674 49.7291 212.744 51.5081 213.218 53.0213C213.693 54.5281 214.499 55.6993 215.638 56.5351C216.783 57.3644 218.188 57.7791 219.851 57.7791C221.471 57.7791 222.97 57.3739 224.35 56.5635C225.729 55.7532 226.896 54.6072 227.851 53.1257ZM227.975 43.2492C228.342 44.4711 228.38 45.9494 228.089 47.6841C227.804 49.4442 227.26 50.9542 226.456 52.2141C225.659 53.4676 224.691 54.43 223.552 55.1011C222.414 55.7721 221.193 56.1077 219.889 56.1077C218.63 56.1077 217.558 55.7848 216.672 55.139C215.793 54.4869 215.173 53.5499 214.812 52.328C214.452 51.0998 214.414 49.6215 214.699 47.8931C214.996 46.1267 215.546 44.6167 216.35 43.3631C217.153 42.1032 218.124 41.1409 219.263 40.4761C220.402 39.805 221.62 39.4695 222.917 39.4695C224.169 39.4695 225.235 39.7955 226.115 40.4476C226.994 41.0934 227.614 42.0273 227.975 43.2492Z" fill="#CCCCCC"/>
<defs>
<linearGradient id="paint0_linear_871_586" x1="15.9975" y1="-3.03299" x2="30.4021" y2="54.4157" gradientUnits="userSpaceOnUse">
<stop stop-color="#4184FF"/>
<stop offset="0.838417" stop-color="#8CDEFF"/>
</linearGradient>
<linearGradient id="paint1_linear_871_586" x1="41.3328" y1="18.3774" x2="41.3316" y2="63.7111" gradientUnits="userSpaceOnUse">
<stop stop-color="#6FDD83"/>
<stop offset="1" stop-color="#EEDA2B"/>
</linearGradient>
</defs>
</svg>
