<svg xmlns="http://www.w3.org/2000/svg" xmlns:xlink="http://www.w3.org/1999/xlink">
    <symbol viewBox="0 0 25 24" id="user" xmlns="http://www.w3.org/2000/svg">
        <path d="M7.5 8C7.5 9.32608 8.02678 10.5979 8.96447 11.5355C9.90215 12.4732 11.1739 13 12.5 13C13.8261 13 15.0979 12.4732 16.0355 11.5355C16.9732 10.5979 17.5 9.32608 17.5 8C17.5 6.67392 16.9732 5.40215 16.0355 4.46447C15.0979 3.52678 13.8261 3 12.5 3C11.1739 3 9.90215 3.52678 8.96447 4.46447C8.02678 5.40215 7.5 6.67392 7.5 8Z"  stroke-width="2"/>
        <path d="M22.5 23C21.7689 21.2453 20.4147 19.7261 18.6238 18.6515C16.8329 17.577 14.6934 17 12.5 17C10.3066 17 8.16709 17.577 6.37618 18.6515C4.58528 19.7261 3.23106 21.2453 2.5 23"  stroke-width="2"/>
    </symbol>
    <symbol viewBox="0 0 25 24" id="entry" xmlns="http://www.w3.org/2000/svg">
        <path d="M8.00098 12H23.001" stroke-width="2"/>
        <path d="M19.75 15.7539L23.5 12.0039L19.75 8.25391"  stroke-width="2"/>
        <path d="M16.4986 16.2857V20.5714C16.5146 20.9329 16.3897 21.2861 16.1512 21.5539C15.9126 21.8216 15.5799 21.982 15.2258 22H3.77329C3.41935 21.9817 3.08688 21.8212 2.84856 21.5535C2.61023 21.2859 2.48542 20.9328 2.50141 20.5714V3.42857C2.48517 3.06718 2.60989 2.71394 2.84827 2.4462C3.08665 2.17845 3.41926 2.01801 3.77329 2H15.2258C15.5799 2.01801 15.9126 2.17842 16.1512 2.44614C16.3897 2.71386 16.5146 3.06709 16.4986 3.42857V7.71429" stroke-width="2"/>
    </symbol>
    <symbol viewBox="0 0 25 24" id="search" xmlns="http://www.w3.org/2000/svg">
        <path d="M2.5 11C2.5 13.3869 3.44821 15.6761 5.13604 17.364C6.82387 19.0518 9.11305 20 11.5 20C13.8869 20 16.1761 19.0518 17.864 17.364C19.5518 15.6761 20.5 13.3869 20.5 11C20.5 8.61305 19.5518 6.32387 17.864 4.63604C16.1761 2.94821 13.8869 2 11.5 2C9.11305 2 6.82387 2.94821 5.13604 4.63604C3.44821 6.32387 2.5 8.61305 2.5 11Z"  stroke-width="2"/>
        <path d="M17.7139 17.2134L22.7139 22.2134" stroke-width="2"/>
    </symbol>
    <symbol viewBox="0 0 24 24" id="arrow_right" xmlns="http://www.w3.org/2000/svg">
        <path d="M9.0791 6L15.0791 12L9.0791 18" stroke-width="2"/>
    </symbol>
    <symbol viewBox="0 0 24 24" id="arrow_left" xmlns="http://www.w3.org/2000/svg">
        <path d="M15.0791 6L9.0791 12L15.0791 18" stroke-width="2"/>
    </symbol>
    <!-- 18 -->
    <symbol viewBox="0 0 18 18" id="location" xmlns="http://www.w3.org/2000/svg">
        <path d="M3.15918 8.09078C3.15918 11.6589 6.51183 14.4964 8.99996 16.4869C11.4881 14.4964 14.8407 11.6589 14.8407 8.09078C14.8407 6.54171 14.2254 5.05609 13.13 3.96073C12.0347 2.86537 10.549 2.25 8.99996 2.25C7.45089 2.25 5.96526 2.86537 4.8699 3.96073C3.77455 5.05609 3.15918 6.54171 3.15918 8.09078Z" stroke="#333333" stroke-width="2"/>
        <path d="M6.98022 7.7017C6.98022 8.23742 7.19304 8.75119 7.57185 9.13001C7.95066 9.50882 8.46444 9.72163 9.00016 9.72163C9.53588 9.72163 10.0497 9.50882 10.4285 9.13001C10.8073 8.75119 11.0201 8.23742 11.0201 7.7017C11.0201 7.16598 10.8073 6.6522 10.4285 6.27339C10.0497 5.89458 9.53588 5.68176 9.00016 5.68176C8.46444 5.68176 7.95066 5.89458 7.57185 6.27339C7.19304 6.6522 6.98022 7.16598 6.98022 7.7017Z" stroke="#333333" stroke-width="1.84444"/>
    </symbol>
    <symbol viewBox="0 0 18 18" id="building" xmlns="http://www.w3.org/2000/svg">
        <path d="M2.25 16.5V2.25H10.35V8.57143M10.35 16.5V8.57143M15.75 16.5V8.57143H10.35M13.05 14.4643V10.9286M7.65 14.4643V10.9286M4.95 14.4643V10.9286M7.65 8.14286V4.60714M4.95 8.14286V4.60714" stroke="#333333" stroke-width="2"/>
    </symbol>
    <symbol viewBox="0 0 18 18" id="date" xmlns="http://www.w3.org/2000/svg">
        <path d="M5.2875 2.25L5.2875 4.125M12.7125 4.125L12.7125 2.25M2.5875 7.875L15.4125 7.875M14.7857 4.50102C15.0297 4.48904 15.2681 4.58274 15.4489 4.76163C15.6296 4.94053 15.7378 5.19006 15.75 5.45563L15.75 14.045C15.7377 14.3105 15.6293 14.5598 15.4486 14.7386C15.2679 14.9173 15.0296 15.0109 14.7857 14.9989L3.21429 14.9989C2.97035 15.0111 2.73191 14.9176 2.55118 14.7388C2.37046 14.56 2.26216 14.3106 2.25 14.045L2.25 5.45563C2.26216 5.19006 2.37044 4.94053 2.55114 4.76163C2.73185 4.58274 2.97028 4.48904 3.21429 4.50102L14.7857 4.50102Z" stroke="#333333" stroke-width="2"/>
    </symbol>
    <!-- social -->
    <symbol viewBox="0 0 25 25" id="telegram" xmlns="http://www.w3.org/2000/svg">
        <path d="M12.5 24.97C19.1274 24.97 24.5 19.5974 24.5 12.97C24.5 6.34255 19.1274 0.969971 12.5 0.969971C5.87258 0.969971 0.5 6.34255 0.5 12.97C0.5 19.5974 5.87258 24.97 12.5 24.97Z"/>
        <path fill-rule="evenodd" clip-rule="evenodd" d="M5.93177 12.8432C9.43001 11.319 11.7627 10.3142 12.9299 9.82878C16.2624 8.44267 16.9549 8.20188 17.4062 8.19393C17.5055 8.19218 17.7275 8.21679 17.8712 8.33345C17.9926 8.43196 18.026 8.56503 18.042 8.65842C18.058 8.75182 18.0779 8.96458 18.0621 9.13082C17.8815 11.0283 17.1001 15.633 16.7026 17.7582C16.5343 18.6575 16.2031 18.959 15.8825 18.9885C15.1856 19.0526 14.6564 18.5279 13.9815 18.0855C12.9253 17.3932 12.3287 16.9622 11.3035 16.2866C10.1187 15.5059 10.8868 15.0768 11.562 14.3755C11.7387 14.192 14.8091 11.3992 14.8685 11.1459C14.8759 11.1142 14.8828 10.9961 14.8126 10.9337C14.7425 10.8713 14.6389 10.8927 14.5642 10.9096C14.4583 10.9337 12.771 12.0488 9.50252 14.2552C9.02361 14.584 8.58982 14.7443 8.20117 14.7359C7.7727 14.7266 6.94851 14.4936 6.33582 14.2945C5.58431 14.0502 4.98704 13.921 5.03905 13.5062C5.06614 13.2901 5.36371 13.0691 5.93177 12.8432Z" fill="white"/>
    </symbol>
    <symbol viewBox="0 0 25 25" id="facebook" xmlns="http://www.w3.org/2000/svg">
        <g clip-path="url(#clip0_144_2022)">
        <path d="M24.5 12.97C24.5 6.34255 19.1274 0.969971 12.5 0.969971C5.87258 0.969971 0.5 6.34255 0.5 12.97C0.5 18.9594 4.8882 23.924 10.625 24.8242V16.4387H7.57812V12.97H10.625V10.3262C10.625 7.31872 12.4166 5.65747 15.1576 5.65747C16.4701 5.65747 17.8438 5.89185 17.8438 5.89185V8.84497H16.3306C14.84 8.84497 14.375 9.77005 14.375 10.72V12.97H17.7031L17.1711 16.4387H14.375V24.8242C20.1118 23.924 24.5 18.9594 24.5 12.97Z" />
        <path d="M17.1711 16.4385L17.7031 12.9697H14.375V10.7197C14.375 9.77074 14.84 8.84473 16.3306 8.84473H17.8438V5.8916C17.8438 5.8916 16.4705 5.65723 15.1576 5.65723C12.4166 5.65723 10.625 7.31848 10.625 10.326V12.9697H7.57812V16.4385H10.625V24.8239C11.8674 25.0183 13.1326 25.0183 14.375 24.8239V16.4385H17.1711Z" fill="white"/>
        </g>
        <defs>
        <clipPath id="clip0_144_2022">
        <rect width="24" height="24" fill="white" transform="translate(0.5 0.969971)"/>
        </clipPath>
        </defs>
    </symbol>
    <symbol viewBox="0 0 25 25" id="linkedin" xmlns="http://www.w3.org/2000/svg">
        <g clip-path="url(#clip0_144_2027)">
        <path d="M22.7283 0.969971H2.27167C1.80179 0.969971 1.35116 1.15663 1.01891 1.48888C0.686657 1.82113 0.5 2.27176 0.5 2.74164V23.1983C0.5 23.6682 0.686657 24.1188 1.01891 24.4511C1.35116 24.7833 1.80179 24.97 2.27167 24.97H22.7283C23.1982 24.97 23.6488 24.7833 23.9811 24.4511C24.3133 24.1188 24.5 23.6682 24.5 23.1983V2.74164C24.5 2.27176 24.3133 1.82113 23.9811 1.48888C23.6488 1.15663 23.1982 0.969971 22.7283 0.969971ZM7.65333 21.415H4.045V9.9533H7.65333V21.415ZM5.84667 8.36497C5.43736 8.36267 5.03792 8.23917 4.69873 8.01006C4.35955 7.78095 4.09584 7.4565 3.94088 7.07766C3.78591 6.69882 3.74665 6.28256 3.82803 5.88143C3.90941 5.48029 4.1078 5.11225 4.39816 4.82375C4.68851 4.53526 5.05781 4.33924 5.45947 4.26043C5.86112 4.18162 6.27711 4.22356 6.65495 4.38096C7.03279 4.53835 7.35554 4.80414 7.58247 5.14478C7.80939 5.48543 7.93032 5.88566 7.93 6.29497C7.93386 6.569 7.88251 6.84101 7.77901 7.09478C7.67551 7.34854 7.52198 7.57887 7.32757 7.77204C7.13316 7.9652 6.90185 8.11725 6.64742 8.21912C6.393 8.32099 6.12067 8.37059 5.84667 8.36497ZM20.9533 21.425H17.3467V15.1633C17.3467 13.3166 16.5617 12.7466 15.5483 12.7466C14.4783 12.7466 13.4283 13.5533 13.4283 15.21V21.425H9.82V9.96164H13.29V11.55H13.3367C13.685 10.845 14.905 9.63997 16.7667 9.63997C18.78 9.63997 20.955 10.835 20.955 14.335L20.9533 21.425Z" />
        </g>
        <defs>
        <clipPath id="clip0_144_2027">
        <rect width="24" height="24" fill="white" transform="translate(0.5 0.969971)"/>
        </clipPath>
        </defs>
    </symbol>
    <!-- social color-->
    <symbol viewBox="0 0 22 22" id="facebook_color" xmlns="http://www.w3.org/2000/svg">
        <path d="M14.771 11L15.342 8.714H13.057V7C13.057 6.2 13.171 5.286 14.314 5.286H15.343V3H13.286C11.114 3 9.629 4.486 9.629 7V8.714H7V11H9.629V19H13.058V11H14.771Z" />
    </symbol>
    <symbol viewBox="0 0 22 22" id="vk_color" xmlns="http://www.w3.org/2000/svg">
        <path d="M11.815 17C12.556 17 12.556 16.111 12.556 15.667C12.5547 15.3131 12.6947 14.9732 12.945 14.723C13.1952 14.4727 13.5351 14.3327 13.889 14.334C14.63 14.334 15.667 15.519 16.556 16.408C17.297 17.001 17.297 17.001 18.037 17.001H20.111C20.4668 17.0084 20.8102 16.8704 21.0618 16.6188C21.3134 16.3672 21.4514 16.0238 21.444 15.668C21.444 15.224 21 14.483 19.37 13.001C18.037 11.668 17.296 12.26 19.37 9.594C20.555 7.964 21.592 6.335 21.444 6.038C21.296 5.594 17.888 5.001 17.444 5.594C16.6871 6.6881 15.9946 7.82536 15.37 9C14.629 10.333 14.629 11.074 14.037 11.074C13.445 11.074 13.3 9.741 13.3 9C13.3 6.778 13.6 5.148 12.559 5H10.481C9.72846 5.02019 9.00196 5.27976 8.407 5.741L7.666 6.482C7.814 6.482 8.999 6.182 8.999 7.223V8.556C8.999 8.556 8.999 11.223 8.258 11.223C7.517 11.223 6.481 8.259 5.148 6.185C4.555 5.296 4.407 5.444 3.667 5.444H1.741C1 5.444 1 5.889 1 6.185C2.01071 9.22745 3.68003 12.0095 5.889 14.333C8.259 16.852 9.889 17 11.222 17H11.815Z"/>
    </symbol>
    <symbol viewBox="0 0 22 22" id="odnoklassniki_color" xmlns="http://www.w3.org/2000/svg">
        <path fill-rule="evenodd" clip-rule="evenodd" d="M10.719 3.00032C9.73836 2.98756 8.79414 3.37149 8.10066 4.06497C7.40718 4.75846 7.02325 5.70267 7.03601 6.68332C7.03601 8.71766 8.68517 10.3668 10.7195 10.3668C12.7538 10.3668 14.403 8.71766 14.403 6.68332C14.4158 5.7025 14.0317 4.75812 13.338 4.06461C12.6443 3.3711 11.6998 2.98729 10.719 3.00032ZM14.4 11.0583C14.2011 11.0583 13.9474 11.1818 13.6152 11.3436C12.9852 11.6502 12.0729 12.0943 10.717 12.0943C9.31135 12.0943 8.33183 11.6171 7.70244 11.3104C7.40454 11.1652 7.18508 11.0583 7.03601 11.0583C6.76092 11.0573 6.49679 11.1661 6.30227 11.3606C6.10775 11.5551 5.99894 11.8192 6.00001 12.0943C6.02989 12.477 6.24498 12.821 6.57601 13.0153C7.15201 13.3603 9.22301 14.2813 9.22301 14.2813L6.92301 17.1593C6.92301 17.1593 6.46301 17.6193 6.46301 17.9653C6.4622 18.2404 6.57127 18.5044 6.76597 18.6988C6.96068 18.8931 7.22492 19.0017 7.50001 19.0003C7.80626 19.009 8.1009 18.8829 8.30601 18.6553L10.723 15.8923L13.14 18.6553C13.3451 18.8829 13.6398 19.009 13.946 19.0003C14.2211 19.0014 14.4852 18.8926 14.6797 18.6981C14.8743 18.5035 14.9831 18.2394 14.982 17.9643C14.982 17.6193 14.522 17.1583 14.522 17.1583L12.335 14.2803C13.243 13.9141 14.127 13.4913 14.982 13.0143C15.3475 12.8577 15.5772 12.4905 15.558 12.0933C15.4683 11.5162 14.9835 11.0829 14.4 11.0583ZM8.87701 6.68332C8.87701 7.70063 9.7017 8.52532 10.719 8.52532C11.2095 8.53184 11.6818 8.33987 12.0287 7.993C12.3756 7.64614 12.5675 7.17382 12.561 6.68332C12.561 5.66601 11.7363 4.84132 10.719 4.84132C9.7017 4.84132 8.87701 5.66601 8.87701 6.68332Z"/>
    </symbol>
    <symbol viewBox="0 0 22 22" id="telegram_color" xmlns="http://www.w3.org/2000/svg">
        <path d="M14.8795 5.34688L5.69648 8.56688C5.69648 8.56688 3.66948 9.75988 6.53148 11.0669C8.08148 11.7829 9.51248 12.3789 9.51248 12.3789L11.1825 15.7179C11.1825 15.7179 12.4945 18.8179 13.8065 15.3599C14.7605 12.9749 15.8335 9.63588 16.6685 7.24988C17.9795 3.79688 14.8795 5.34688 14.8795 5.34688Z"/>
    </symbol>
    <symbol viewBox="0 0 22 22" id="twiter_color" xmlns="http://www.w3.org/2000/svg">
        <path d="M18.556 6.77834C17.9606 7.06476 17.3226 7.25253 16.667 7.33434C17.3235 6.86027 17.8258 6.20324 18.111 5.44534C17.6321 5.80635 17.1092 6.10507 16.555 6.33434L16.222 6.00034C15.759 5.41853 15.0744 5.05612 14.333 5.00034C12.7707 4.97629 11.4811 6.21629 11.444 7.77834V8.33434V8.33434C8.333 8.33434 6.444 7.66734 5 5.89034C4.65628 6.2947 4.46022 6.80389 4.444 7.33434C4.51298 8.33114 5.04818 9.23698 5.888 9.77834C5.35754 9.76212 4.84836 9.56606 4.444 9.22234C4.444 10.6663 6.444 12.3333 7.888 12.6663C7.332 13.2223 5.666 12.6663 5.444 12.6663C5.91516 13.8399 7.069 14.5943 8.333 14.5553C7.27675 15.3519 5.98893 15.7811 4.666 15.7773H4C5.4778 16.6475 7.17554 17.0722 8.889 17.0003C11.113 17.0469 13.2597 16.1839 14.8326 14.611C16.4055 13.038 17.2685 10.8913 17.222 8.66734V8.22234C17.7208 7.79396 18.1684 7.30942 18.556 6.77834Z"/>
    </symbol>
    <symbol viewBox="0 0 22 22" id="viber_color" xmlns="http://www.w3.org/2000/svg">
        <path fill-rule="evenodd" clip-rule="evenodd" d="M5.62303 4.11066C7.32231 3.28701 9.20374 2.91085 11.0891 3.01781H11.7446C15.0241 3.12736 16.336 3.7829 17.2062 4.32977C18.1681 5.05109 18.8298 6.10222 19.0642 7.28146C19.2508 8.69425 19.3238 10.1197 19.2824 11.5442C19.2824 15.9266 16.4195 16.3179 14.481 16.5828C14.2436 16.6153 14.02 16.6458 13.8172 16.6816C12.9156 16.8432 12.0004 16.9162 11.0846 16.8998H10.1049C9.71993 16.8998 9.01013 17.7124 8.35671 18.4604L8.3567 18.4604L8.35669 18.4604C8.08188 18.775 7.81704 19.0781 7.59053 19.3046L6.93499 19.9602V16.353C6.4844 16.1621 6.04622 15.9431 5.62303 15.6974C5.34783 15.5902 5.09001 15.4428 4.85794 15.2601C3 13.8395 3 11.4347 3 10.1227C3.00888 8.85465 3.23047 7.59708 3.65553 6.40236C4.08657 5.47105 4.76769 4.67769 5.62303 4.11066ZM11.7446 4.11066H11.0891L11.0935 4.11512C9.40695 3.99983 7.71783 4.30015 6.17436 4.98976C5.53343 5.31538 5.02855 5.85749 4.74928 6.51993C4.74928 6.57471 4.72189 6.62926 4.6945 6.68382C4.66712 6.73837 4.63973 6.79292 4.63973 6.8477C4.27419 7.90147 4.08813 9.00912 4.08929 10.1245C4.08929 11.5451 4.20241 13.4075 5.51437 14.3872C5.64298 14.5153 5.73354 14.5685 5.80857 14.6126C5.86135 14.6436 5.90644 14.6701 5.95169 14.715C6.01458 14.7774 6.04137 14.804 6.05278 14.836C6.06124 14.8598 6.06124 14.8866 6.06124 14.9332C6.41217 15.1411 6.77737 15.3238 7.1541 15.4801L7.91918 15.6983V17.232C8.79382 16.2443 9.3407 15.807 9.99623 15.807H11.0926C11.9361 15.8218 12.7788 15.7487 13.607 15.5888L13.8981 15.543C15.7676 15.2492 16.5902 15.12 17.2142 14.4959C17.9758 13.7308 18.194 13.1839 18.194 11.5442C18.2452 10.1922 18.1721 8.83834 17.9758 7.49967C17.8402 6.62764 17.3695 5.84302 16.6638 5.31307C15.8987 4.65754 14.5868 4.22022 11.7446 4.11066ZM14.4736 12.9648C14.1402 12.6054 13.7744 12.2774 13.3808 11.9851L12.7288 11.6573C12.5106 11.5478 12.1819 11.5478 12.0733 11.7669C12.0186 11.8215 11.964 11.8831 11.9092 11.9447C11.7454 12.1291 11.5813 12.3138 11.4177 12.3138C11.194 12.3228 10.9708 12.2855 10.7622 12.2042C10.4156 11.976 10.0879 11.7201 9.78247 11.4391C9.45148 11.0893 9.19003 10.6797 9.01204 10.2323C8.93455 10.0093 8.97583 9.76232 9.12159 9.57672C9.15237 9.54594 9.20037 9.50659 9.25591 9.46105C9.39808 9.34449 9.58969 9.1874 9.66846 9.02985C9.72961 8.80583 9.68958 8.56627 9.55891 8.37431C9.33682 7.95949 9.04035 7.58905 8.68427 7.28146C8.24695 6.73459 7.80963 6.84414 7.70453 6.95369C7.40247 7.05911 7.13696 7.24889 6.93944 7.50056C6.74663 7.83155 6.70667 8.22984 6.82989 8.59253C7.15028 9.59658 7.66946 10.5259 8.3565 11.3251C9.18745 12.3274 10.1858 13.1781 11.3073 13.8395L11.3966 13.8906C12.1153 14.3019 12.6365 14.6003 13.0566 14.495C13.5423 14.4078 13.9743 14.133 14.259 13.7299C14.4903 13.5495 14.5788 13.2404 14.4781 12.9648H14.4736ZM14.0443 7.60923C13.2644 6.65495 12.1023 6.09447 10.87 6.07816C10.7527 6.06995 10.6595 5.97637 10.6518 5.85905C10.6599 5.74208 10.753 5.64899 10.87 5.64084C12.1974 5.64579 13.4635 6.20002 14.3677 7.17191C15.1565 8.07454 15.5502 9.25595 15.4605 10.4514C15.4524 10.5683 15.3593 10.6614 15.2423 10.6696C15.1253 10.6614 15.0322 10.5683 15.0241 10.4514C15.1093 9.40866 14.754 8.37793 14.0443 7.60923ZM14.0443 10.3418C14.1613 10.3337 14.2544 10.2406 14.2626 10.1236C14.2496 9.22739 13.8998 8.36887 13.2828 7.71878C12.7123 7.12425 11.912 6.80645 11.0891 6.8477C10.9683 6.8477 10.8704 6.9456 10.8704 7.06636C10.8704 7.18712 10.9683 7.28502 11.0891 7.28502C11.7895 7.26179 12.4661 7.54042 12.947 8.05011C13.4853 8.60251 13.7634 9.35761 13.7121 10.1272L13.7246 10.1391C13.83 10.2404 13.9355 10.3418 14.0443 10.3418ZM11.3082 8.26476C11.3082 8.1561 11.3082 8.04655 11.5264 8.04655C11.9088 8.00323 12.2846 8.17021 12.5088 8.48298C12.8327 8.80292 13.0274 9.23098 13.0557 9.68538C13.0475 9.80236 12.9544 9.89544 12.8375 9.9036C12.7205 9.89544 12.6274 9.80236 12.6193 9.68538C12.6145 9.36469 12.4987 9.05558 12.2915 8.81074C12.0846 8.6124 11.8127 8.49593 11.5264 8.48298C11.4094 8.47482 11.3163 8.38173 11.3082 8.26476Z"/>
    </symbol>
     <symbol viewBox="0 0 22 22" id="whatsapp_color" xmlns="http://www.w3.org/2000/svg">
        <path fill-rule="evenodd" clip-rule="evenodd" d="M3 19.012L4.121 15.032C2.0933 11.5797 2.93502 7.15952 6.08963 4.69402C9.24424 2.22853 13.7368 2.47967 16.597 5.28139C19.4572 8.08312 19.801 12.5696 17.4012 15.7744C15.0013 18.9793 10.5995 19.912 7.106 17.956L3 19.012ZM7.315 16.502L7.56 16.651C10.4405 18.4062 14.1795 17.7204 16.2497 15.0573C18.3198 12.3941 18.0619 8.60149 15.6504 6.24302C13.2388 3.88456 9.44141 3.71118 6.82498 5.84008C4.20854 7.96897 3.60616 11.7223 5.425 14.563L5.59 14.819L4.945 17.111L7.315 16.502ZM8.247 7.23705L8.766 7.26505C8.86885 7.2709 8.95934 7.33497 8.999 7.43005L9.754 9.19705C9.79435 9.29141 9.77726 9.40053 9.71 9.47805L9.053 10.239C9.00026 10.3011 8.99038 10.3889 9.028 10.461C9.6607 11.6219 10.6982 12.5096 11.943 12.955C12.0232 12.982 12.1117 12.9556 12.164 12.889L12.852 11.997C12.9285 11.898 13.0632 11.8649 13.177 11.917L14.929 12.725C15.0429 12.7778 15.1051 12.9023 15.079 13.025L14.996 13.412C14.9049 13.8493 14.6428 14.232 14.268 14.475C13.71 14.8282 13.0233 14.9133 12.396 14.707C10.5514 14.1581 8.95077 12.9933 7.861 11.407C7.19187 10.6267 6.88739 9.59791 7.024 8.57905C7.15469 8.11202 7.42598 7.69654 7.801 7.38905C7.92425 7.28232 8.08423 7.2278 8.247 7.23705Z"/>
    </symbol>
     <symbol viewBox="0 0 12 12" id="clear" xmlns="http://www.w3.org/2000/svg">
        <path d="M9 3L3 9" stroke="#C4C4C4" stroke-width="1" stroke-linecap="round" stroke-linejoin="round"/>
        <path d="M3 3L9 9" stroke="#C4C4C4" stroke-width="1" stroke-linecap="round" stroke-linejoin="round"/>
    </symbol>

</svg>