<svg xmlns="http://www.w3.org/2000/svg" version="1.1" xmlns:xlink="http://www.w3.org/1999/xlink" xmlns:svgjs="http://svgjs.dev/svgjs" width="1000" height="1000"><g clip-path="url(#SvgjsClipPath1090)"><rect width="1000" height="1000" fill="#4184ff"></rect><g transform="matrix(2.797202797202797,0,0,2.797202797202797,100,154.54545454545456)"><svg xmlns="http://www.w3.org/2000/svg" version="1.1" xmlns:xlink="http://www.w3.org/1999/xlink" xmlns:svgjs="http://svgjs.dev/svgjs" width="286" height="247"><svg width="286" height="247" viewBox="0 0 286 247" fill="none" xmlns="http://www.w3.org/2000/svg">
<path fill-rule="evenodd" clip-rule="evenodd" d="M130.842 114.1C133.441 115.087 134.39 118.282 132.751 120.532L116.84 142.377C116.011 143.515 114.668 144.164 113.263 144.104L90.6567 143.15C90.1188 143.128 89.5927 143.312 89.1866 143.666L86.9467 145.619C85.7461 146.666 86.0945 148.618 87.5827 149.183L101.454 154.448C104.054 155.434 105.002 158.63 103.363 160.879L79.3422 193.859C78.5497 194.947 77.2862 195.59 75.9418 195.59L4.51772 195.588C1.07415 195.588 -0.912489 191.671 1.11758 188.884L90.1073 66.7057C118.796 27.3176 163.616 3.16151 211.924 0.674791C215.363 0.497762 217.352 4.37926 215.322 7.16644L156.343 88.1419C155.513 89.2806 154.171 89.9288 152.765 89.8695L102.025 87.7284C97.7218 87.5468 93.5129 89.0243 90.2637 91.8571L87.4517 94.3087C86.2511 95.3554 86.5995 97.3071 88.0877 97.872L130.842 114.1Z" fill="white"></path>
<path fill-rule="evenodd" clip-rule="evenodd" d="M171.997 104.056C171.515 102.734 171.723 101.258 172.551 100.122L206.728 53.1992C207.52 52.1111 208.784 51.4677 210.128 51.4678L281.552 51.4697C284.996 51.4697 286.982 55.3872 284.952 58.1744L195.962 180.352C167.274 219.74 122.454 243.897 74.1459 246.383C70.7069 246.56 68.7175 242.679 70.7475 239.892L119.575 172.855C121.215 170.603 124.545 170.536 126.274 172.721L135.319 184.153C136.308 185.403 138.269 185.143 138.901 183.68L140.078 180.949C140.292 180.453 140.308 179.895 140.123 179.388L132.451 158.35C131.969 157.028 132.177 155.553 133.005 154.416L148.976 132.488C150.616 130.236 153.947 130.17 155.675 132.354L183.96 168.104C184.948 169.353 186.91 169.094 187.541 167.63L189.019 164.201C190.727 160.24 190.856 155.773 189.378 151.719L171.997 104.056Z" fill="white"></path>
</svg></svg></g></g><defs><clipPath id="SvgjsClipPath1090"><rect width="1000" height="1000" x="0" y="0" rx="350" ry="350"></rect></clipPath></defs></svg>